<?xml version="1.0" encoding="UTF-8" standalone="no"?>
<svg
   viewBox="0 0 102.32516 94.107569"
   width="102.32516"
   height="94.107567"
   version="1.1"
   id="svg1819"
   sodipodi:docname="ZoomedConnector_B.svg"
   inkscape:version="1.1 (c68e22c387, 2021-05-23)"
   xmlns:inkscape="http://www.inkscape.org/namespaces/inkscape"
   xmlns:sodipodi="http://sodipodi.sourceforge.net/DTD/sodipodi-0.dtd"
   xmlns:xlink="http://www.w3.org/1999/xlink"
   xmlns="http://www.w3.org/2000/svg"
   xmlns:svg="http://www.w3.org/2000/svg">
  <sodipodi:namedview
     id="namedview1821"
     pagecolor="#ffffff"
     bordercolor="#666666"
     borderopacity="1.0"
     inkscape:pageshadow="2"
     inkscape:pageopacity="0.0"
     inkscape:pagecheckerboard="0"
     showgrid="false"
     inkscape:zoom="4"
     inkscape:cx="53.875"
     inkscape:cy="52.125"
     inkscape:window-width="1920"
     inkscape:window-height="1057"
     inkscape:window-x="-8"
     inkscape:window-y="-8"
     inkscape:window-maximized="1"
     inkscape:current-layer="g1817"
     fit-margin-top="0"
     fit-margin-left="0"
     fit-margin-right="0"
     fit-margin-bottom="0"
     inkscape:snap-grids="false"
     inkscape:snap-to-guides="false" />
  <desc
     id="desc1670">Page.dxf - scale = 1.0, origin = (0.0, 0.0), method = manual</desc>
  <defs
     id="defs1685">
    <linearGradient
       id="linearGradient1042"
       inkscape:swatch="solid">
      <stop
         style="stop-color:#000000;stop-opacity:1;"
         offset="0"
         id="stop1040" />
    </linearGradient>
    <marker
       id="ExperimentalArrow"
       refX="5"
       refY="3"
       orient="auto-start-reverse"
       inkscape:stockid="ExperimentalArrow"
       inkscape:isstock="true">
      <path
         style="fill:context-stroke"
         d="M 10,3 0,6 V 0 Z"
         id="path3773" />
    </marker>
    <marker
       style="overflow:visible"
       id="Arrow1Lstart"
       refX="0"
       refY="0"
       orient="auto"
       inkscape:stockid="Arrow1Lstart"
       inkscape:isstock="true">
      <path
         transform="matrix(0.8,0,0,0.8,10,0)"
         style="fill:context-stroke;fill-rule:evenodd;stroke:context-stroke;stroke-width:1pt"
         d="M 0,0 5,-5 -12.5,0 5,5 Z"
         id="path3520" />
    </marker>
    <marker
       id="DistanceX"
       orient="auto"
       refX="0"
       refY="0"
       style="overflow:visible">
      <path
         d="M 3,-3 -3,3 M 0,-5 V 5"
         style="stroke:#000000;stroke-width:0.5"
         id="path1672" />
    </marker>
    <pattern
       id="Hatch"
       patternUnits="userSpaceOnUse"
       width="8"
       height="8"
       x="0"
       y="0">
      <path
         d="M8 4 l-4,4"
         stroke="#000000"
         stroke-width="0.25"
         linecap="square"
         id="path1675" />
      <path
         d="M6 2 l-4,4"
         stroke="#000000"
         stroke-width="0.25"
         linecap="square"
         id="path1677" />
      <path
         d="M4 0 l-4,4"
         stroke="#000000"
         stroke-width="0.25"
         linecap="square"
         id="path1679" />
    </pattern>
    <symbol
       id="*Model_Space" />
    <symbol
       id="*Paper_Space" />
    <symbol
       id="*D1" />
    <linearGradient
       inkscape:collect="always"
       xlink:href="#linearGradient1042"
       id="linearGradient1044"
       x1="440.46367"
       y1="561.0475"
       x2="441.46367"
       y2="561.0475"
       gradientUnits="userSpaceOnUse" />
    <linearGradient
       inkscape:collect="always"
       xlink:href="#linearGradient1042"
       id="linearGradient2622"
       gradientUnits="userSpaceOnUse"
       x1="440.46367"
       y1="561.0475"
       x2="441.46367"
       y2="561.0475"
       gradientTransform="matrix(1,0,0,0.94509077,0.0288232,30.408596)" />
  </defs>
  <g
     inkscape:groupmode="layer"
     inkscape:label="0"
     id="g1693"
     transform="translate(-418.36367,-475.63492)">
    <path
       style="fill:none;stroke:#000000;stroke-width:1.00626;stroke-linecap:butt;marker-start:url(#ExperimentalArrow)"
       d="m 517.00465,479.0614 -46.38771,43.14294"
       id="path1687" />
    <path
       d="m 476.88436,540.22677 a 29.010345,29.010345 0 1 0 -58.02069,0 29.010345,29.010345 0 1 0 58.02069,0 z"
       style="fill:none;stroke:#000000;stroke-linecap:butt;stroke-opacity:1;paint-order:normal"
       id="path1689" />
    <path
       style="fill:#000000;stroke:#000000;stroke-width:0.00582316;stroke-linecap:butt;stroke-opacity:1;paint-order:normal"
       d="m 22.965103,92.113571 c -0.09064,0.09502 -0.221203,0.140372 -0.350704,0.141724 0.01922,0.0075 0.06456,0.01679 0.09385,0.02464 0.100535,0.02299 0.202431,0.05306 0.302461,0.07061 0.01081,-0.09474 0.0028,-0.191223 0.0053,-0.28662 -0.01698,0.01655 -0.03397,0.0331 -0.05095,0.04964 z"
       id="path3659"
       transform="translate(418.36367,475.63492)" />
    <path
       style="fill:#000000;stroke:#000000;stroke-width:0.00390625;stroke-linecap:butt;stroke-opacity:1;paint-order:normal"
       d="m 28.443466,92.916992 c -3.5e-5,0.05566 -7.1e-5,0.111328 -1.07e-4,0.166992 0.14688,0.0018 0.294917,0.01233 0.441048,0.0098 -0.14102,-0.0074 -0.275528,-0.07959 -0.361336,-0.191468 -0.03633,-0.045 -0.05929,-0.09861 -0.0795,-0.15229 -3.6e-5,0.05566 -7.1e-5,0.111328 -1.07e-4,0.166992 z"
       id="path3737"
       transform="translate(418.36367,475.63492)" />
    <path
       style="fill:#000000;stroke:#000000;stroke-width:0.00390625;stroke-linecap:butt;stroke-opacity:1;paint-order:normal"
       d="m 30.69693,92.794777 c -0.06188,0.157056 -0.213327,0.267954 -0.377918,0.295625 -0.0067,0.003 0.04086,-8.58e-4 0.05599,-6.08e-4 0.11126,-0.0051 0.223125,-0.004 0.333986,-0.01377 -7.1e-5,-0.103464 -1.42e-4,-0.206929 -2.13e-4,-0.310394 -0.0039,0.0097 -0.0079,0.01944 -0.01184,0.02915 z"
       id="path3776"
       transform="translate(418.36367,475.63492)" />
    <path
       style="fill:#000000;stroke:#000000;stroke-width:0.00390625;stroke-linecap:butt;stroke-opacity:1;paint-order:normal"
       d="m 36.099609,92.112473 c 9.45e-4,0.0722 -0.0015,0.146723 0.003,0.217521 0.150964,-0.03551 0.303378,-0.07258 0.452217,-0.112198 -0.08155,-0.0072 -0.163943,-0.02318 -0.235199,-0.06561 -0.100779,-0.05422 -0.172992,-0.149004 -0.217728,-0.252644 -0.0054,5.46e-4 -7.34e-4,0.04461 -0.0023,0.06173 0,0.0504 0,0.1008 0,0.1512 z"
       id="path3815"
       transform="translate(418.36367,475.63492)" />
  </g>
  <g
     inkscape:groupmode="layer"
     inkscape:label="Annotation"
     id="g1695"
     transform="translate(-418.36367,-475.63492)" />
  <g
     inkscape:groupmode="layer"
     inkscape:label="Annotation001"
     id="g1697"
     transform="translate(-418.36367,-475.63492)" />
  <g
     inkscape:groupmode="layer"
     inkscape:label="Dimension"
     id="g1699"
     transform="translate(-418.36367,-475.63492)" />
  <g
     inkscape:groupmode="layer"
     inkscape:label="Dimension001"
     id="g1701"
     transform="translate(-418.36367,-475.63492)" />
  <g
     inkscape:groupmode="layer"
     inkscape:label="Dimension002"
     id="g1703"
     transform="translate(-418.36367,-475.63492)" />
  <g
     inkscape:groupmode="layer"
     inkscape:label="Dimension003"
     id="g1705"
     transform="translate(-418.36367,-475.63492)" />
  <g
     inkscape:groupmode="layer"
     inkscape:label="View"
     id="g1707"
     transform="translate(-418.36367,-475.63492)" />
  <g
     inkscape:groupmode="layer"
     inkscape:label="View001"
     id="g1817"
     transform="translate(-418.36367,-475.63492)">
    <path
       style="fill:#ffff84;stroke:#000000;stroke-linecap:round;stroke-opacity:1"
       d="m 440.863,531.273 h 5.96"
       id="path1709" />
    <path
       style="fill:#ffff84;stroke:#000000;stroke-linecap:round;stroke-opacity:1"
       d="m 440.863,531.273 v -0.299"
       id="path1711" />
    <path
       style="fill:#ffff84;stroke:#000000;stroke-linecap:round;stroke-opacity:1"
       d="m 440.863,530.974 h 5.96"
       id="path1713" />
    <path
       style="fill:#ffff84;stroke:#000000;stroke-linecap:round;stroke-opacity:1"
       d="m 446.823,530.974 v 0.299"
       id="path1715" />
    <path
       style="fill:#000000;stroke:#000000;stroke-linecap:round;stroke-opacity:1"
       d="m 446.823,540.227 h -5.96"
       id="path1717" />
    <path
       style="fill:#ffff84;stroke:#000000;stroke-linecap:round;stroke-opacity:1"
       d="m 446.823,540.227 v -8.954"
       id="path1719" />
    <path
       style="fill:#ffff84;stroke:#000000;stroke-linecap:round;stroke-opacity:1"
       d="m 440.863,531.273 v 8.954"
       id="path1721" />
    <path
       style="fill:#000000;stroke:#000000;stroke-linecap:round;stroke-opacity:1"
       d="m 440.863,543.734 v -3.507"
       id="path1723" />
    <path
       style="fill:#ffff84;stroke:#000000;stroke-linecap:round;stroke-opacity:1"
       d="m 448.925,530.974 h 5.96"
       id="path1725" />
    <path
       style="fill:#ffff84;stroke:#000000;stroke-linecap:round;stroke-opacity:1"
       d="M 456.287,540.227 V 528.518"
       id="path1727" />
    <path
       style="fill:#ffff84;stroke:#000000;stroke-linecap:round;stroke-opacity:1"
       d="M 439.461,540.227 V 528.518"
       id="path1729" />
    <path
       style="fill:#000000;stroke:#000000;stroke-linecap:round;stroke-opacity:1"
       d="m 446.823,543.734 v -3.507"
       id="path1731" />
    <path
       style="fill:#000000;stroke:#000000;stroke-linecap:round;stroke-opacity:1"
       d="m 446.823,543.734 h -5.96"
       id="path1733" />
    <path
       style="fill:#000000;stroke:#000000;stroke-linecap:round;stroke-opacity:1"
       d="m 440.863,543.734 h -1.402"
       id="path1735" />
    <path
       style="fill:#000000;stroke:#000000;stroke-linecap:round;stroke-opacity:1"
       d="m 448.925,540.227 h -2.102"
       id="path1737" />
    <path
       style="fill:#ffff84;stroke:#000000;stroke-linecap:round;stroke-opacity:1"
       d="m 448.925,531.273 v 8.954"
       id="path1739" />
    <path
       style="fill:#ffff84;stroke:#000000;stroke-linecap:round;stroke-opacity:1"
       d="m 448.925,531.273 v -0.299"
       id="path1741" />
    <path
       style="fill:#ffff84;stroke:#000000;stroke-linecap:round;stroke-opacity:1"
       d="m 448.925,531.273 h 5.96"
       id="path1743" />
    <path
       style="fill:#ffff84;stroke:#000000;stroke-linecap:round;stroke-opacity:1"
       d="m 454.885,531.273 v -0.299"
       id="path1745" />
    <path
       style="fill:#ffff84;stroke:#000000;stroke-linecap:round;stroke-opacity:1"
       d="m 454.885,531.273 v 8.954"
       id="path1747" />
    <path
       style="fill:#000000;stroke:#000000;stroke-linecap:round;stroke-opacity:1"
       d="m 454.885,543.734 v -3.507"
       id="path1749" />
    <path
       style="fill:#000000;stroke:#000000;stroke-linecap:round;stroke-opacity:1"
       d="m 456.287,543.734 h -1.402"
       id="path1751" />
    <path
       style="fill:#000000;stroke:#000000;stroke-linecap:round;stroke-opacity:1"
       d="m 456.287,540.227 v 3.507"
       id="path1753" />
    <path
       style="fill:#ffff84;stroke:#000000;stroke-linecap:round;stroke-opacity:1"
       d="m 456.287,528.518 v -9.672"
       id="path1755" />
    <path
       style="fill:#ffff84;stroke:#000000;stroke-linecap:round;stroke-opacity:1"
       d="m 439.461,528.518 h 16.826"
       id="path1757" />
    <path
       style="fill:#ffff84;stroke:#000000;stroke-linecap:round;stroke-opacity:1"
       d="m 439.461,528.518 v -9.672"
       id="path1759" />
    <path
       style="fill:#000000;stroke:#000000;stroke-linecap:round;stroke-opacity:1"
       d="m 439.461,543.734 v -3.507"
       id="path1761" />
    <path
       style="fill:#000000;stroke:#000000;stroke-linecap:round;stroke-opacity:1"
       d="M 458.389,553.901 V 540.227"
       id="path1763" />
    <path
       style="fill:#000000;stroke:#000000;stroke-linecap:round;stroke-opacity:1"
       d="m 456.287,540.227 h 2.102"
       id="path1765" />
    <path
       style="fill:#000000;stroke:#000000;stroke-linecap:round;stroke-opacity:1"
       d="m 448.925,543.734 h 5.96"
       id="path1767" />
    <path
       style="fill:#000000;stroke:#000000;stroke-linecap:round;stroke-opacity:1"
       d="m 448.925,543.734 h -2.102"
       id="path1769" />
    <path
       style="fill:#000000;stroke:#000000;stroke-linecap:round;stroke-opacity:1"
       d="m 437.359,540.227 h 2.102"
       id="path1771" />
    <path
       style="fill:#000000;stroke:#000000;stroke-linecap:round;stroke-opacity:1"
       d="M 437.359,553.901 V 540.227"
       id="path1773" />
    <path
       style="fill:#000000;stroke:#000000;stroke-linecap:round;stroke-opacity:1"
       d="m 437.359,553.901 h 21.03"
       id="path1775" />
    <path
       style="fill:#000000;stroke:#000000;stroke-linecap:round;stroke-opacity:1"
       d="m 448.925,540.227 h 5.96"
       id="path1777" />
    <path
       style="fill:#000000;stroke:#000000;stroke-linecap:round;stroke-opacity:1"
       d="m 448.925,543.734 v -3.507"
       id="path1779" />
    <path
       style="fill:#ffff84;stroke:#000000;stroke-linecap:round;stroke-opacity:1"
       d="m 456.287,524.455 h 2.102"
       id="path1781" />
    <path
       style="fill:#ffff84;stroke:#000000;stroke-linecap:round;stroke-opacity:1"
       d="m 458.389,524.455 v 15.772"
       id="path1783" />
    <path
       style="fill:#ffff84;stroke:#000000;stroke-linecap:round;stroke-opacity:1"
       d="m 439.461,518.846 h 16.826"
       id="path1785" />
    <path
       style="fill:#ffff84;stroke:#000000;stroke-linecap:round;stroke-opacity:1"
       d="m 437.359,524.455 v 15.772"
       id="path1787" />
    <path
       style="fill:#ffff84;stroke:#000000;stroke-linecap:round;stroke-opacity:1"
       d="m 439.461,524.455 h -2.102"
       id="path1789" />
    <path
       style="fill:#000000;stroke:#000000;stroke-linecap:round;stroke-opacity:1"
       d="m 458.389,553.901 h 6.803"
       id="path1791" />
    <path
       style="fill:#000000;stroke:#000000;stroke-linecap:round;stroke-opacity:1"
       d="m 437.359,553.901 h -6.803"
       id="path1793" />
    <path
       style="fill:#000000;stroke:#000000;stroke-linecap:round;stroke-opacity:1"
       d="m 451.907,545.722 -3.776,6.539"
       id="path1795" />
    <path
       style="fill:#000000;stroke:#000000;stroke-linecap:round;stroke-opacity:1"
       d="m 455.679,552.261 -3.772,-6.539"
       id="path1797" />
    <path
       style="fill:#000000;stroke:#000000;stroke-linecap:round;stroke-opacity:1"
       d="m 448.131,552.261 h 7.548"
       id="path1799" />
    <path
       style="fill:#000000;stroke:#000000;stroke-linecap:round;stroke-opacity:1"
       d="m 458.389,547.098 h 6.803"
       id="path1801" />
    <path
       style="fill:#000000;stroke:#000000;stroke-linecap:round;stroke-opacity:1"
       d="m 465.192,553.901 v -6.803"
       id="path1803" />
    <path
       style="fill:#000000;stroke:#000000;stroke-linecap:round;stroke-opacity:1"
       d="m 437.359,547.098 h -6.803"
       id="path1805" />
    <path
       style="fill:#000000;stroke:#000000;stroke-linecap:round;stroke-opacity:1"
       d="m 430.556,553.901 v -6.803"
       id="path1807" />
    <path
       style="fill:none;stroke:url(#linearGradient2622);stroke-width:0.972158;stroke-linecap:round;stroke-opacity:1;paint-order:normal"
       d="M 440.9925,553.89532 V 567.4035"
       id="path1809" />
    <path
       style="fill:none;stroke:#000000;stroke-width:0.969218;stroke-linecap:round;stroke-opacity:1"
       d="m 447.27167,553.87066 v 14.37446"
       id="path1811" />
    <path
       style="fill:none;stroke:#000000;stroke-width:0.969216;stroke-linecap:round;stroke-opacity:1"
       d="m 448.61367,553.87069 v 14.3744"
       id="path1813" />
    <path
       style="fill:none;stroke:#000000;stroke-width:0.971595;stroke-linecap:round;stroke-opacity:1"
       d="m 454.92167,553.873 v 13.49254"
       id="path1815" />
    <path
       style="fill:#ffffb4;stroke:#000000;stroke-width:0.0658816;stroke-opacity:1"
       d="m 447.87944,519.32776 c -2.64075,0.006 -5.2815,0.0112 -7.92226,0.0167 -0.0105,2.8878 -0.0211,5.77561 -0.0317,8.66342 5.29206,0 10.58411,0 15.87617,0 0,-2.89896 0,-5.79792 0,-8.69688 -2.64075,0.006 -5.2815,0.0112 -7.92226,0.0167 z"
       id="path2653" />
    <path
       style="fill:#ffffb4;stroke:#000000;stroke-width:0.0658816;stroke-opacity:1"
       d="m 439.92604,536.11135 c 10e-4,2.37173 0.002,4.74347 0.003,7.11521 0.56988,0.17621 0.4682,-0.31913 0.45628,-0.7247 0.019,-3.83088 -0.0417,-7.66312 0.0407,-11.49312 -0.0453,-0.27953 0.14247,-0.53228 0.44175,-0.47674 2.01932,-0.0346 4.04221,-0.0508 6.06084,0.009 0.48529,0.0146 0.30298,0.65603 0.35827,0.96827 0.031,2.74156 0.01,5.48347 0.0161,8.22517 0.34827,-0.047 0.88175,0.0912 1.11999,-0.0659 0.023,-2.9223 -0.0492,-5.84732 0.0445,-8.76791 0.0193,-0.48012 0.59925,-0.40768 0.9298,-0.39101 1.89611,0.0264 3.79831,-0.0616 5.69065,0.0526 0.3749,0.12282 0.17125,0.66526 0.24328,0.95754 0.0346,3.90197 0.004,7.80428 0.009,11.70639 0.5715,0.17616 0.47548,-0.31519 0.4613,-0.7247 0,-4.50191 0,-9.00382 0,-13.50572 -5.29291,0 -10.58583,0 -15.87874,0 0.001,2.37173 0.002,4.74347 0.003,7.11521 z"
       id="path2692" />
    <path
       style="fill:#ffffb4;stroke:#000000;stroke-width:0.0658816;stroke-opacity:1"
       d="m 441.37364,535.749 c 0,1.32861 0,2.65722 0,3.98583 1.64704,0 3.29408,0 4.94112,0 0,-2.65722 0,-5.31444 0,-7.97167 -1.64704,0 -3.29408,0 -4.94112,0 0,1.32861 0,2.65723 0,3.98584 z"
       id="path2731" />
    <path
       style="fill:#ffffb4;stroke:#000000;stroke-width:0.0658816;stroke-opacity:1"
       d="m 441.37364,541.97481 c 0,0.41725 0,0.8345 0,1.25175 1.64704,0 3.29408,0 4.94112,0 0,-0.8345 0,-1.669 0,-2.5035 -1.64704,0 -3.29408,0 -4.94112,0 0,0.41725 0,0.8345 0,1.25175 z"
       id="path2770" />
    <path
       style="fill:#ffffb4;stroke:#000000;stroke-width:0.0658816;stroke-opacity:1"
       d="m 447.30298,541.97481 c 0,0.41725 0,0.8345 0,1.25175 0.34827,-0.047 0.88175,0.0912 1.11999,-0.0659 0,-0.81254 0,-1.62508 0,-2.43762 -0.34827,0.047 -0.88175,-0.0912 -1.11999,0.0659 0,0.39529 0,0.79058 0,1.18587 z"
       id="path2809" />
    <path
       style="fill:#ffffb4;stroke:#000000;stroke-width:0.0658816;stroke-opacity:1"
       d="m 449.41119,541.97481 c 0,0.41725 0,0.8345 0,1.25175 1.669,0 3.338,0 5.007,0 0,-0.8345 0,-1.669 0,-2.5035 -1.669,0 -3.338,0 -5.007,0 0,0.41725 0,0.8345 0,1.25175 z"
       id="path2848" />
    <path
       style="fill:#ffffb4;stroke:#000000;stroke-width:0.0658816;stroke-opacity:1"
       d="m 449.41119,535.749 c 0,1.32861 0,2.65722 0,3.98583 1.669,0 3.338,0 5.007,0 0,-2.65722 0,-5.31444 0,-7.97167 -1.669,0 -3.338,0 -5.007,0 0,1.32861 0,2.65723 0,3.98584 z"
       id="path2887" />
    <path
       style="fill:#ffffb4;stroke:#000000;stroke-width:0.0658816;stroke-opacity:1"
       d="m 437.83224,532.33963 c -0.006,2.46507 -0.0111,4.93013 -0.0167,7.3952 0.39597,0 0.79195,0 1.18792,0 -0.0115,-4.93013 -0.023,-9.86027 -0.0345,-14.79041 -0.34838,0.047 -0.88154,-0.0912 -1.12014,0.0659 -0.006,2.44311 -0.0111,4.88622 -0.0166,7.32933 z"
       id="path2926" />
    <path
       style="fill:#ffffb4;stroke:#000000;stroke-width:0.0658816;stroke-opacity:1"
       d="m 456.78993,532.32045 c 0,2.47146 0,4.94292 0,7.41438 0.34836,-0.047 0.88226,0.0911 1.12035,-0.0659 -0.0111,-4.90818 -0.0222,-9.81635 -0.0333,-14.72453 -0.33531,0.0371 -0.86182,-0.12364 -1.08704,0.0277 0,2.44946 0,4.89892 0,7.34837 z"
       id="path2965" />
    <path
       style="fill:#ffffb4;stroke:#000000;stroke-width:0.0658816;stroke-opacity:1"
       d="m 437.8177,547.03752 c 0.008,2.11869 -0.0103,4.23859 0.0418,6.35642 6.68277,0.0745 13.36703,0.0283 20.05039,0.0417 0,-4.23753 0,-8.47505 0,-12.71257 -0.34827,0.047 -0.88174,-0.0912 -1.11998,0.0659 -0.0369,1.04418 0.0772,2.10484 -0.0679,3.13941 -0.16703,0.48606 -0.7413,0.2198 -1.12745,0.28643 -5.30531,-0.0167 -10.61138,0.0369 -15.9162,-0.0362 -0.27372,0.01 -0.71635,-0.0112 -0.67245,-0.39619 -0.0315,-1.0193 0.005,-2.03968 0.003,-3.05937 -0.39705,0 -0.7941,0 -1.19115,0 0,2.10482 0,4.20964 0,6.31446 z m 14.11874,-1.81431 c 0.50881,0.11531 0.60992,0.76244 0.90186,1.12348 1.13068,1.97401 2.29275,3.93772 3.35792,5.9445 -0.0968,0.35334 -0.40605,0.51353 -0.75686,0.43054 -2.52215,-0.0118 -5.05198,0.0638 -7.56944,-0.0318 -0.46571,-0.26153 -0.0931,-0.85328 0.11787,-1.15911 1.23845,-2.07426 2.36585,-4.21951 3.69889,-6.23456 0.0696,-0.0545 0.1619,-0.0795 0.24976,-0.0731 z"
       id="path3004" />
    <path
       style="fill:#ffffb4;stroke:#000000;stroke-width:0.0658816;stroke-opacity:1"
       d="m 451.9403,546.80153 c -0.74269,0.97588 -1.28003,2.10546 -1.91776,3.1555 -0.32326,0.59293 -0.72308,1.20819 -0.99159,1.79424 1.92612,0.0605 3.85641,0.0504 5.78253,0.0121 -0.93551,-1.66339 -1.87977,-3.34265 -2.87318,-4.96184 z"
       id="path3043" />
    <path
       style="fill:#ffffb4;stroke:#000000;stroke-width:0.0658816;stroke-opacity:1"
       d="m 431.03023,550.50712 c 0,0.9775 0,1.955 0,2.9325 1.94351,-0.0115 3.88701,-0.023 5.83052,-0.0344 0.0114,-1.94351 0.0228,-3.88701 0.0344,-5.83052 -1.95495,0 -3.90991,0 -5.86487,0 0,0.97746 0,1.95492 0,2.93238 z"
       id="path3082" />
    <path
       style="fill:#ffffb4;stroke:#000000;stroke-width:0.0658816;stroke-opacity:1"
       d="m 458.89814,550.50647 c 0,0.97725 0,1.95449 0,2.93173 1.93252,0 3.86505,0 5.79758,0 0,-1.95448 0,-3.90897 0,-5.86346 -1.93253,0 -3.86506,0 -5.79758,0 0,0.97725 0,1.95449 0,2.93173 z"
       id="path3121" />
    <path
       style="fill:#313131;stroke:#000000;stroke-width:0.0935566;stroke-opacity:1"
       d="m 449.11905,561.61503 c 0,2.40102 0,4.80204 0,7.20306 1.79007,-0.0504 3.56587,-0.41246 5.29868,-0.85459 0,-4.51717 0,-9.03435 0,-13.55152 -1.76623,0 -3.53246,0 -5.29868,0 0,2.40102 0,4.80204 0,7.20305 z"
       id="path3197" />
    <path
       style="fill:#aa0000;stroke:#000000;stroke-width:0.0939358;stroke-opacity:1"
       d="m 441.42723,561.19861 c 0,2.2622 0,4.52442 0,6.78663 1.74502,0.44258 3.52909,0.81086 5.33323,0.85595 0,-4.80967 0,-9.61935 0,-14.42902 -1.77775,0 -3.55549,0 -5.33323,0 0,2.26214 0,4.52429 0,6.78644 z"
       id="path3310" />
  </g>
</svg>
